# xmcd
#
# Track frame offsets:
#	150
#	18825
#	37441
#	55582
#	75914
#	91365
#	106873
#	121460
#	138629
#	156157
#	171458
#	187649
#	208818
#	227013
#	244833
#	264012
#	289930
#	320168
#
# Disc length: 4424 seconds
#
# Revision: 0
# Processed by: cddbd v1.5.1PL0 Copyright (c) Steve Scherf et al.
# Submitted via: audiograbber 1.83.01
#
DISCID=f6114612
DTITLE=Skee-Lo - Holdin' On
DYEAR=1996
DGENRE=Rap
TTITLE0=Superman
TTITLE1=I Wish
TTITLE2=Never Crossed my Mind
TTITLE3=Top Of The Stairs
TTITLE4=Come Back To Me
TTITLE5=Waltin' For You
TTITLE6=Holdin' On
TTITLE7=You Ain't Down
TTITLE8=Crenshaw
TTITLE9=This Is How It Sounds
TTITLE10=The Burger Song
TTITLE11=I Wish (Street Mix)
TTITLE12=Holdin' On (The Flip Da Script Mix)
TTITLE13=Superman (Supermix)
TTITLE14=Top Of The Stairs (Hood Mix)
TTITLE15=I Wish (The Stylus Flava Mix)
TTITLE16=Holdin' On (Cooly's Jazz Mix)
TTITLE17=Daten-CD
EXTD=
EXTT0=
EXTT1=
EXTT2=
EXTT3=
EXTT4=
EXTT5=
EXTT6=
EXTT7=
EXTT8=
EXTT9=
EXTT10=
EXTT11=
EXTT12=
EXTT13=
EXTT14=
EXTT15=
EXTT16=
EXTT17=
PLAYORDER=
